<?xml version="1.0" standalone="no"?>
<!DOCTYPE svg PUBLIC "-//W3C//DTD SVG 20010904//EN"
 "http://www.w3.org/TR/2001/REC-SVG-20010904/DTD/svg10.dtd">
<svg version="1.0" xmlns="http://www.w3.org/2000/svg"
 width="1154.000000pt" height="750.000000pt" viewBox="0 0 1154.000000 750.000000"
 preserveAspectRatio="xMidYMid meet">

<g transform="translate(0.000000,750.000000) scale(0.100000,-0.100000)"
fill="#000000" stroke="none">
<path d="M2280 6683 c-530 -22 -1068 -155 -1422 -352 -303 -168 -529 -399
-660 -671 -79 -163 -133 -396 -158 -680 -26 -294 -8 -757 45 -1140 30 -216
113 -654 141 -742 3 -9 -4 -26 -15 -37 -10 -10 -22 -28 -26 -40 l-6 -21 1295
0 1296 0 0 605 0 605 -734 0 c-404 0 -741 -3 -749 -6 -8 -3 -100 -96 -203
-207 -104 -111 -225 -240 -270 -287 -44 -47 -114 -121 -156 -165 -220 -234
-226 -240 -238 -229 -13 13 -40 158 -79 432 -62 431 -87 835 -71 1120 9 167
17 226 54 433 60 334 307 629 691 826 139 71 481 189 580 200 44 5 57 1 104
-27 238 -140 432 -373 553 -665 l33 -80 5 -630 5 -630 238 -3 237 -2 0 1193 0
1194 -92 7 c-86 6 -251 6 -398 -1z"/>
<path d="M8808 6683 l-68 -4 0 -1200 0 -1199 238 2 237 3 5 635 5 635 38 90
c121 284 310 511 537 646 64 38 75 41 118 35 62 -8 303 -85 444 -141 442 -177
758 -513 823 -877 8 -46 21 -121 29 -167 62 -343 32 -955 -79 -1624 -19 -115
-35 -210 -35 -213 0 -19 -47 26 -241 234 -123 130 -260 275 -304 322 -90 95
-197 208 -271 288 l-49 52 -725 0 c-399 1 -735 1 -747 0 l-23 0 0 -600 0 -600
1301 0 1301 0 -27 36 c-33 43 -34 35 28 334 197 955 187 1825 -26 2280 -232
495 -763 832 -1527 970 -295 53 -687 78 -982 63z"/>
<path d="M3825 6556 c-18 -27 -35 -157 -35 -268 0 -43 -1 -78 -2 -79 -2 0 -77
-4 -168 -9 -91 -5 -219 -12 -286 -16 l-121 -7 -7 83 c-10 112 -19 132 -53 128
-48 -5 -57 -42 -42 -161 8 -69 12 -234 11 -504 -1 -415 -12 -639 -38 -803 -47
-296 -50 -333 -30 -353 57 -57 98 40 130 303 33 276 39 409 34 806 -2 217 -2
397 1 399 9 5 257 23 423 30 l147 7 5 -34 c38 -247 44 -271 98 -391 l31 -68
-18 -135 c-16 -120 -17 -154 -7 -292 22 -285 71 -440 199 -627 100 -145 161
-193 212 -165 40 21 26 58 -69 170 -126 150 -203 312 -235 498 -17 94 -20 378
-5 402 7 12 13 9 32 -15 39 -51 159 -180 174 -188 8 -5 27 -7 42 -5 21 2 28 9
30 31 3 22 -8 40 -55 90 -119 125 -196 240 -188 277 10 46 73 164 109 207 20
22 37 52 38 65 3 19 -2 23 -27 26 -49 4 -86 -28 -130 -111 -22 -42 -45 -77
-52 -77 -14 0 -37 68 -63 190 -31 147 -31 146 38 153 31 4 95 6 141 6 88 1
121 14 121 51 0 35 -21 40 -172 40 l-147 0 -7 34 c-3 19 -4 40 -2 47 2 7 43
20 91 30 99 20 161 54 226 124 43 47 49 63 29 83 -19 19 -38 14 -79 -23 -21
-19 -56 -43 -77 -54 -45 -23 -169 -58 -177 -49 -3 3 -1 38 5 78 8 53 7 76 -1
86 -18 22 -57 17 -74 -10z"/>
<path d="M6653 6548 c-6 -7 -13 -43 -15 -80 -4 -75 -17 -95 -82 -129 -31 -17
-64 -23 -138 -27 -120 -6 -158 1 -196 36 -40 36 -54 66 -51 110 5 85 -9 102
-63 75 -35 -17 -45 -65 -28 -145 22 -103 80 -149 215 -171 l75 -12 0 -46 0
-46 -112 -6 c-62 -4 -158 -7 -213 -7 -134 0 -179 -24 -141 -75 14 -19 27 -20
238 -20 l223 0 1 -203 c1 -180 3 -204 19 -222 46 -51 75 5 75 142 0 51 3 137
7 191 l6 97 90 0 c86 0 89 -1 84 -21 -9 -35 9 -65 58 -93 69 -41 116 -86 137
-133 17 -38 16 -73 -2 -73 -4 0 -39 30 -76 68 -103 101 -218 150 -244 103 -16
-30 -3 -47 68 -90 83 -50 104 -68 136 -116 35 -51 33 -65 -6 -65 -42 0 -82 21
-114 60 -41 49 -104 33 -104 -27 0 -30 58 -87 107 -105 18 -7 33 -17 33 -23 0
-6 -18 -47 -41 -91 -35 -66 -40 -86 -36 -122 l5 -43 -47 3 -46 3 0 123 c0 116
-1 125 -22 142 -26 20 -58 16 -68 -8 -4 -10 -10 -70 -12 -134 l-6 -118 -33 0
c-30 0 -34 3 -34 25 0 30 -87 194 -107 202 -8 3 -26 0 -40 -6 -22 -10 -25 -16
-20 -45 3 -19 24 -64 47 -100 23 -37 41 -69 39 -71 -2 -2 -20 -7 -39 -12 -25
-7 -38 -17 -45 -37 -16 -45 10 -56 131 -56 84 0 103 -3 108 -16 3 -9 6 -163 6
-344 0 -181 4 -340 9 -353 10 -27 33 -39 56 -31 33 13 38 69 33 411 l-5 333
128 0 c116 0 131 2 149 20 24 24 25 34 4 54 -10 11 -34 16 -75 16 -32 0 -59 4
-59 8 0 5 21 50 46 100 36 73 44 98 39 122 l-7 30 51 0 c50 0 50 0 60 -37 27
-101 33 -208 35 -603 l1 -415 27 -3 c71 -8 82 50 82 428 0 248 -13 448 -39
599 -13 74 -12 75 14 115 22 34 26 50 26 110 -1 53 -6 82 -22 112 -25 47 -99
124 -154 161 -21 14 -39 29 -39 33 0 4 42 10 94 13 52 3 104 10 115 16 27 15
28 57 2 71 -12 6 -111 10 -251 10 l-231 0 3 52 3 51 72 17 c132 31 186 89 191
204 2 45 -2 80 -10 96 -15 28 -59 39 -75 18z"/>
<path d="M4969 6498 c-8 -15 -10 -50 -6 -108 l7 -87 -122 -6 c-67 -4 -146 -7
-175 -7 l-55 0 4 98 3 97 -32 3 c-42 4 -54 -19 -62 -117 l-6 -76 -44 -6 c-41
-5 -81 -35 -81 -59 0 -22 35 -40 76 -40 l44 0 0 -172 c0 -191 10 -233 67 -283
71 -63 237 -73 366 -23 35 13 71 76 86 146 6 29 11 116 11 192 0 127 2 140 19
150 11 5 28 10 38 10 10 0 24 4 32 9 24 16 -2 59 -41 69 l-33 8 -10 100 c-6
54 -14 105 -18 112 -13 20 -55 14 -68 -10z m-109 -309 c0 -19 -54 -99 -66 -99
-15 0 -64 71 -64 93 0 14 11 17 65 17 42 0 65 -4 65 -11z m105 -151 c-3 -68
-9 -131 -12 -141 -8 -31 -36 -14 -71 46 l-34 57 52 80 c29 44 57 80 62 80 7 0
8 -44 3 -122z m-308 75 c16 -21 39 -54 51 -74 l22 -36 -42 -77 c-24 -42 -47
-74 -53 -73 -5 2 -13 17 -16 33 -10 46 -10 264 0 264 5 0 22 -17 38 -37z m168
-260 c41 -61 35 -73 -34 -73 -33 0 -63 4 -66 10 -8 14 44 100 61 100 7 0 25
-17 39 -37z"/>
<path d="M5153 6505 c-13 -10 -17 -27 -17 -69 0 -103 52 -128 257 -124 l128 3
25 -28 c35 -41 33 -99 -5 -138 -16 -16 -38 -29 -48 -29 -73 -2 -226 -22 -263
-35 -100 -35 -116 -86 -106 -330 10 -237 -18 -917 -50 -1191 -7 -57 10 -84 51
-84 34 0 43 22 64 172 26 177 34 390 35 888 1 443 2 451 51 465 11 3 77 12
146 19 138 15 176 29 211 78 47 67 33 221 -26 277 -36 34 -129 47 -238 33
-114 -14 -134 -7 -149 52 -12 48 -36 63 -66 41z"/>
<path d="M7659 6476 c-2 -2 -67 -5 -144 -7 -77 -2 -157 -7 -177 -12 -34 -9
-38 -13 -38 -42 0 -51 22 -55 222 -46 95 4 262 6 370 3 224 -5 248 -2 248 32
0 40 -31 56 -126 66 -88 10 -347 14 -355 6z"/>
<path d="M7820 6209 c-401 -9 -625 -23 -645 -39 -8 -7 -15 -25 -15 -41 0 -46
27 -52 171 -41 68 5 125 8 127 7 2 -2 6 -45 9 -96 5 -85 9 -98 37 -136 30 -41
120 -93 160 -93 12 0 16 -10 16 -47 0 -27 3 -72 7 -102 l6 -54 -71 6 c-80 6
-153 34 -196 75 -47 44 -66 97 -66 188 0 85 -8 104 -46 104 -38 0 -48 -25 -46
-113 3 -164 53 -252 175 -312 51 -25 91 -37 137 -41 111 -9 110 -9 110 -57 0
-23 -3 -58 -6 -78 l-6 -36 -237 -7 c-255 -8 -281 -13 -281 -61 0 -14 8 -29 19
-35 12 -6 115 -10 264 -10 l244 0 6 -392 c5 -394 10 -449 43 -462 7 -3 25 5
40 17 31 27 30 -2 19 470 l-8 367 259 0 c282 0 307 4 312 52 2 20 -4 31 -24
45 -24 15 -59 18 -286 21 l-259 4 3 76 3 76 63 13 c121 24 245 111 283 199 21
47 39 153 39 234 0 61 -19 100 -49 100 -33 0 -44 -29 -52 -133 -9 -121 -30
-190 -71 -234 -29 -30 -68 -44 -195 -68 l-33 -7 0 99 0 98 50 18 c102 36 134
91 147 250 l6 77 163 0 c134 0 165 3 178 16 21 20 20 37 -1 57 -36 32 -99 35
-503 26z m65 -138 c11 -67 -4 -130 -41 -170 -32 -35 -34 -36 -106 -35 -129 1
-178 47 -178 166 l0 67 113 4 c61 1 133 4 159 5 l46 2 7 -39z"/>
<path d="M6070 5956 c-106 -57 -176 -144 -187 -234 -8 -72 3 -115 43 -168 34
-44 35 -49 26 -88 -6 -22 -13 -52 -16 -66 -15 -64 -26 -563 -17 -720 11 -183
20 -222 57 -238 20 -10 28 -8 45 9 20 20 20 27 12 112 -12 133 -7 730 7 824 7
43 16 85 21 94 5 10 28 18 60 22 97 12 209 85 209 137 0 22 -26 50 -46 50 -8
0 -32 -16 -53 -36 -39 -34 -111 -58 -111 -36 0 18 77 126 119 167 44 42 53 80
22 90 -24 7 -48 -2 -94 -38 -40 -31 -119 -128 -138 -171 -22 -48 -49 -27 -49
38 0 64 76 147 188 205 17 9 22 19 20 39 -3 23 -8 27 -38 29 -21 2 -52 -7 -80
-21z"/>
<path d="M3433 5940 c-148 -13 -184 -33 -171 -97 4 -20 32 -22 156 -8 l72 8 0
-49 0 -49 -71 -40 c-86 -48 -112 -90 -113 -176 -1 -42 6 -71 28 -117 l29 -61
-21 -73 c-43 -149 -54 -250 -50 -443 4 -142 9 -189 23 -223 33 -81 103 -63 91
23 -14 99 -18 360 -7 463 18 172 27 186 99 161 38 -13 72 2 72 32 0 11 -13 34
-30 51 -16 16 -30 32 -30 34 0 8 83 44 101 44 9 0 31 -13 48 -29 26 -24 31
-37 31 -74 0 -42 -4 -48 -50 -87 -80 -67 -102 -133 -101 -295 0 -174 61 -341
162 -447 48 -51 84 -61 113 -33 20 21 9 50 -53 134 -88 120 -120 205 -128 342
-9 143 -2 163 72 234 73 70 90 112 75 182 -6 24 -22 62 -37 84 -22 33 -25 44
-15 57 34 48 47 121 29 170 -8 20 -5 22 23 22 18 0 43 9 56 19 l24 19 -26 21
c-38 30 -64 35 -166 28 l-90 -6 6 31 c3 17 6 34 6 38 0 4 34 10 76 13 105 8
145 38 114 87 -11 18 -195 23 -347 10z m257 -275 c-17 -21 -31 -88 -19 -95 5
-4 3 -14 -4 -25 -17 -23 -37 -12 -37 21 0 13 -4 24 -10 24 -14 0 -43 61 -33
70 8 8 45 16 92 19 20 1 21 -1 11 -14z m-177 -88 c10 -28 20 -59 23 -68 4 -12
-9 -25 -49 -48 -30 -17 -57 -31 -61 -31 -12 0 -36 68 -36 104 0 42 46 96 82
96 19 0 26 -9 41 -53z"/>
<path d="M5373 5885 c-40 -28 -48 -77 -47 -280 0 -201 11 -313 49 -540 41
-241 90 -363 232 -576 24 -37 59 -59 93 -59 16 0 20 7 20 38 0 39 -12 62 -63
122 -35 40 -108 192 -144 300 -54 161 -103 506 -103 727 0 78 3 148 6 157 16
41 94 2 126 -64 18 -37 23 -68 27 -186 6 -140 15 -174 46 -174 25 0 38 32 47
123 20 198 -45 348 -176 408 -50 23 -85 24 -113 4z"/>
<path d="M4494 5551 c-44 -11 -54 -19 -54 -45 0 -35 20 -46 88 -47 l60 -2 8
-106 c10 -121 8 -203 -7 -346 -11 -111 -17 -137 -65 -312 -19 -67 -34 -140
-34 -162 0 -37 3 -41 24 -41 46 0 74 54 117 227 66 267 80 445 56 713 -2 25
-1 25 79 28 l80 3 -4 -203 c-5 -241 10 -443 43 -585 35 -147 51 -173 107 -173
19 0 20 4 14 63 -3 34 -13 87 -21 117 -32 115 -46 250 -52 490 -7 294 -8 290
75 290 80 0 107 34 61 76 -19 18 -41 19 -283 21 -143 1 -275 -2 -292 -6z"/>
<path d="M6222 5088 c-6 -6 -12 -28 -12 -47 0 -84 -31 -234 -70 -336 -43 -116
-50 -162 -24 -172 77 -29 164 154 184 384 12 143 6 177 -36 181 -16 2 -35 -3
-42 -10z"/>
<path d="M6610 5085 c-20 -24 -8 -259 19 -360 37 -139 80 -203 119 -179 26 17
26 67 -2 148 -29 82 -45 180 -46 271 -1 85 -18 129 -51 133 -14 2 -31 -4 -39
-13z"/>
<path d="M4985 4130 c-228 -26 -408 -127 -475 -265 -21 -42 -25 -65 -25 -145
0 -87 2 -99 29 -145 71 -122 193 -199 461 -292 219 -76 305 -153 305 -272 -1
-100 -81 -176 -217 -207 -133 -29 -368 -4 -505 55 l-46 20 -10 -27 c-37 -94
-54 -153 -49 -166 12 -30 212 -76 389 -91 88 -7 257 8 344 30 245 63 381 196
392 385 7 124 -41 233 -137 309 -55 44 -174 105 -271 141 -47 17 -94 34 -105
39 -11 5 -42 17 -70 27 -139 49 -217 125 -218 211 -1 52 25 113 47 113 8 0 16
7 19 15 8 19 71 50 136 65 75 18 254 8 356 -20 44 -12 86 -23 94 -24 8 -1 26
33 47 89 19 50 34 91 34 92 0 6 -144 43 -200 52 -99 15 -247 20 -325 11z"/>
<path d="M6231 4129 c-222 -26 -402 -124 -469 -255 -45 -90 -48 -201 -6 -289
53 -113 207 -215 434 -290 110 -36 220 -89 269 -132 105 -89 88 -246 -34 -317
-124 -73 -393 -71 -595 4 -30 11 -59 20 -65 20 -6 0 -24 -37 -39 -82 -15 -46
-30 -88 -32 -94 -6 -16 91 -50 209 -75 119 -25 352 -30 457 -10 228 43 366
129 434 271 28 58 31 75 31 155 0 76 -4 99 -26 146 -62 132 -172 202 -512 328
-141 52 -215 101 -245 163 -19 37 -22 56 -17 87 8 51 42 101 80 121 17 8 32
18 35 22 13 17 131 38 210 38 99 0 178 -12 268 -42 35 -11 66 -18 68 -15 3 3
21 45 39 94 24 63 30 90 21 95 -28 16 -180 48 -275 57 -115 12 -134 12 -240 0z"/>
<path d="M3662 4115 c-275 -50 -476 -169 -598 -356 -87 -134 -119 -261 -111
-448 5 -145 32 -246 92 -346 67 -111 203 -229 329 -284 79 -34 223 -69 336
-82 191 -21 580 25 580 68 0 9 -10 51 -22 95 -19 71 -24 79 -42 73 -108 -30
-183 -40 -326 -40 -131 0 -167 4 -233 23 -283 81 -417 271 -404 572 8 173 47
271 152 375 163 163 476 220 762 139 29 -9 57 -13 62 -10 8 5 61 160 61 179 0
9 -70 27 -170 43 -106 17 -370 17 -468 -1z"/>
<path d="M7471 4073 c-13 -37 -203 -517 -220 -558 -5 -11 -27 -67 -49 -125
-31 -80 -271 -689 -299 -757 -4 -10 29 -13 148 -13 l154 0 80 213 80 212 295
0 294 0 84 -212 85 -212 146 -3 c80 -2 150 -1 154 3 4 3 -34 111 -84 240 -205
522 -311 794 -451 1147 l-40 102 -182 0 -182 0 -13 -37z m243 -338 c23 -72 73
-208 110 -303 38 -94 66 -179 62 -187 -5 -13 -39 -15 -236 -15 -126 0 -230 4
-230 9 0 5 15 46 34 92 64 161 145 385 167 462 15 54 27 77 36 75 8 -2 32 -57
57 -133z"/>
<path d="M100 2765 l0 -155 80 0 80 0 2 -1187 3 -1188 180 -3 c99 -1 190 0
202 3 12 3 34 18 48 33 24 26 25 32 25 152 l0 125 -56 57 c-31 32 -63 58 -72
58 -39 1 -40 8 -43 320 -3 344 -5 330 76 438 47 63 123 132 144 132 6 0 11 4
11 8 0 11 113 66 175 85 28 9 97 23 155 32 186 28 290 61 389 124 98 61 143
131 161 249 18 115 -12 182 -109 244 -69 43 -140 33 -160 -23 -9 -26 -6 -33
25 -65 28 -30 34 -44 34 -81 0 -162 -145 -204 -348 -102 -64 33 -95 56 -138
105 -97 110 -94 162 16 278 44 46 93 86 132 107 l63 33 798 -3 797 -3 0 191 0
191 -1335 0 -1335 0 0 -155z"/>
<path d="M8747 2913 c-4 -3 -7 -89 -7 -190 l0 -183 802 0 801 0 56 -31 c102
-57 204 -167 216 -233 20 -105 -153 -264 -333 -306 -128 -30 -222 32 -222 146
0 27 9 46 35 77 41 47 42 55 15 90 -45 57 -142 37 -215 -45 -45 -50 -59 -103
-47 -183 21 -134 88 -223 218 -292 64 -34 221 -75 352 -93 200 -27 363 -115
467 -252 87 -115 85 -102 85 -450 l0 -308 -33 0 c-27 0 -43 -11 -90 -58 l-57
-58 0 -127 0 -128 32 -30 32 -29 198 0 198 0 2 1188 3 1187 78 3 77 3 0 154 0
155 -1328 0 c-731 0 -1332 -3 -1335 -7z"/>
<path d="M6265 2184 c-22 -2 -59 -7 -82 -10 l-43 -5 0 -368 0 -368 53 -7 c90
-10 228 -7 327 9 216 36 332 138 362 320 13 77 0 173 -32 236 -42 82 -135 146
-252 174 -64 15 -260 26 -333 19z m310 -123 c61 -28 100 -63 128 -116 18 -33
22 -56 21 -130 0 -101 -13 -140 -63 -198 -59 -66 -148 -97 -283 -97 l-88 0 0
278 c0 153 3 282 8 286 4 5 57 6 117 4 87 -4 121 -9 160 -27z"/>
<path d="M7446 2174 c-170 -54 -228 -200 -122 -306 39 -39 87 -64 206 -109
102 -39 140 -72 140 -124 0 -51 -15 -74 -63 -96 -68 -30 -156 -26 -302 16 -17
5 -22 -1 -34 -39 -7 -25 -10 -49 -7 -55 4 -5 40 -17 82 -27 94 -20 244 -15
324 12 105 36 172 132 155 223 -16 84 -76 134 -236 196 -61 24 -122 54 -135
66 -48 45 -37 107 26 140 43 24 156 25 226 4 27 -8 50 -15 51 -15 1 0 33 91
33 96 0 1 -15 7 -32 14 -54 20 -255 23 -312 4z"/>
<path d="M8170 2175 c-149 -42 -243 -148 -271 -307 -9 -49 -9 -83 -2 -130 32
-192 164 -305 368 -316 201 -10 338 59 409 208 29 61 31 72 31 180 0 98 -3
122 -23 164 -38 83 -85 132 -168 172 -70 35 -82 38 -182 41 -74 2 -124 -2
-162 -12z m236 -101 c49 -23 110 -97 130 -156 21 -65 16 -207 -10 -258 -48
-92 -123 -140 -221 -140 -110 0 -181 47 -229 150 -30 65 -28 205 3 275 24 54
78 110 126 131 43 19 159 18 201 -2z"/>
<path d="M1922 1908 c3 -260 4 -275 26 -324 49 -108 132 -156 284 -162 184 -8
299 52 347 181 19 53 21 77 21 317 l0 260 -74 0 -75 0 -3 -272 c-3 -252 -5
-276 -23 -307 -33 -57 -67 -75 -145 -79 -82 -5 -114 6 -157 52 -47 50 -53 87
-53 359 l0 247 -76 0 -75 0 3 -272z"/>
<path d="M2690 2168 c0 -7 49 -175 109 -373 l108 -360 79 -3 79 -3 37 113 c81
250 117 367 123 402 9 47 31 46 38 -1 4 -21 37 -145 74 -276 l68 -238 79 3 78
3 18 50 c10 28 63 187 118 355 55 168 103 313 107 323 6 15 0 17 -68 17 -42 0
-78 -4 -81 -8 -8 -13 -96 -317 -126 -432 -32 -129 -46 -135 -72 -30 -15 59
-96 356 -124 453 -5 15 -16 17 -82 15 l-76 -3 -27 -90 c-15 -49 -39 -128 -54
-175 -48 -156 -75 -250 -75 -265 0 -8 -8 -15 -19 -15 -13 0 -20 9 -24 34 -3
19 -34 142 -69 275 l-63 241 -77 0 c-56 0 -78 -4 -78 -12z"/>
<path d="M4296 1853 c-15 -180 -30 -349 -33 -375 l-6 -48 70 0 70 0 6 63 c4
34 11 148 17 252 16 271 21 284 63 163 41 -118 179 -463 188 -468 4 -3 32 -3
61 0 l52 5 82 195 c90 211 105 248 124 298 7 17 18 32 25 32 13 0 15 -16 36
-352 l12 -188 74 0 74 0 -6 63 c-7 83 -22 281 -35 447 -6 74 -13 159 -16 188
l-5 52 -93 0 -93 0 -83 -197 c-46 -109 -95 -234 -110 -278 -15 -43 -31 -80
-36 -82 -5 -2 -20 32 -33 75 -14 42 -62 167 -106 277 l-82 200 -94 3 -95 3
-28 -328z"/>
<path d="M5564 2143 c-8 -21 -43 -108 -76 -193 -34 -85 -92 -233 -130 -329
-37 -95 -68 -178 -68 -183 0 -5 34 -8 76 -6 l76 3 40 108 41 108 145 -3 146
-3 41 -105 41 -105 82 -3 81 -3 -18 43 c-17 40 -118 295 -225 571 -25 65 -46
122 -46 127 0 6 -40 10 -95 10 l-95 0 -16 -37z m138 -175 c14 -40 36 -101 48
-134 34 -90 30 -94 -89 -94 -55 0 -102 3 -104 8 -7 12 97 292 109 292 6 0 22
-33 36 -72z"/>
<path d="M7000 1805 l0 -375 75 0 75 0 0 375 0 375 -75 0 -75 0 0 -375z"/>
<path d="M8830 1815 c0 -201 -1 -368 -2 -372 -2 -5 30 -9 71 -11 l74 -3 -5
281 c-4 165 -2 280 3 280 5 0 22 -21 37 -47 28 -49 293 -425 338 -480 25 -32
29 -33 100 -33 l74 0 0 375 0 375 -71 0 -71 0 4 -270 c3 -184 1 -270 -7 -270
-5 1 -26 28 -45 61 -19 33 -102 154 -185 269 l-150 209 -82 0 -83 1 0 -365z"/>
<path d="M3814 1756 c-3 -8 -4 -27 -2 -43 l3 -28 173 -3 172 -2 0 45 0 45
-170 0 c-138 0 -172 -3 -176 -14z"/>
<path d="M1304 1101 c-15 -25 -24 -29 -83 -35 -133 -13 -341 -51 -345 -63 -6
-15 31 -63 48 -63 24 0 46 -36 46 -74 0 -45 -23 -104 -44 -112 -21 -8 -56 -67
-56 -94 0 -26 9 -25 113 14 71 27 213 56 275 56 l35 0 -4 -161 c-4 -146 -2
-163 14 -173 13 -8 24 -7 45 4 l27 16 3 152 c3 188 -8 177 180 168 154 -8 165
-4 156 53 -6 37 25 111 66 156 58 65 47 93 -38 93 -31 -1 -81 7 -111 16 -30 9
-89 16 -132 16 -82 0 -109 6 -109 22 0 15 -31 37 -52 38 -9 0 -25 -13 -34 -29z
m357 -141 c10 -17 3 -63 -12 -68 -5 -2 -9 -12 -9 -22 0 -37 -23 -42 -145 -35
l-115 7 0 53 c0 91 -5 88 142 83 99 -3 131 -7 139 -18z m-361 -54 c0 -75 5
-71 -121 -87 -111 -13 -143 -8 -134 24 28 106 13 94 150 121 11 2 39 4 63 5
l42 1 0 -64z"/>
<path d="M9016 1084 c-64 -59 -136 -106 -268 -174 -91 -47 -110 -53 -127 -43
-10 6 -22 9 -25 6 -11 -11 -6 -63 8 -98 21 -50 56 -47 142 10 36 25 72 45 78
45 6 0 16 -10 21 -22 9 -20 17 -23 60 -21 28 1 126 5 218 9 168 7 186 11 200
46 4 8 23 -6 54 -40 44 -48 51 -52 93 -52 47 0 85 18 133 63 29 28 36 53 11
43 -8 -3 -36 5 -62 18 -26 13 -83 38 -127 55 -69 26 -230 112 -245 130 -21 25
-84 71 -98 71 -9 0 -39 -21 -66 -46z m165 -96 c38 -28 69 -57 69 -63 0 -9 -44
-14 -147 -18 -82 -3 -156 -8 -165 -12 -27 -11 -34 21 -12 47 31 34 135 98 161
98 13 0 55 -23 94 -52z"/>
<path d="M10107 1056 c-114 -114 -312 -225 -378 -212 -25 5 -29 2 -29 -16 0
-49 23 -97 51 -109 39 -16 71 -1 150 67 34 30 66 54 70 54 4 0 16 -11 26 -25
l18 -24 183 7 c157 6 186 10 197 25 7 9 15 17 18 17 3 0 30 -24 60 -54 90 -90
151 -94 229 -14 51 52 60 73 29 63 -11 -3 -45 5 -78 18 -32 14 -74 27 -94 31
-42 7 -170 89 -219 140 -50 52 -96 86 -131 96 -27 8 -34 4 -102 -64z m167 -71
c48 -38 58 -60 29 -69 -35 -9 -253 -18 -253 -9 0 13 140 113 159 113 10 0 39
-16 65 -35z"/>
<path d="M3451 1106 c-14 -16 -4 -43 23 -66 27 -21 19 -47 -15 -54 -67 -13
-77 -9 -90 37 -6 23 -18 50 -26 60 -28 30 -133 18 -133 -16 0 -7 16 -28 35
-47 19 -19 35 -39 35 -45 0 -18 -70 -35 -144 -35 -51 0 -68 -4 -73 -16 -3 -8
-1 -20 6 -27 6 -6 11 -39 11 -74 0 -48 4 -65 15 -70 21 -7 48 19 70 67 20 45
64 68 190 96 86 19 376 26 487 10 66 -9 77 -25 54 -79 -16 -39 -7 -57 29 -57
14 0 32 18 58 56 20 31 37 62 37 69 0 24 -31 37 -125 53 -60 10 -95 21 -95 29
0 7 11 23 25 37 44 44 2 82 -76 70 -41 -7 -46 -13 -28 -31 7 -7 2 -20 -17 -42
-24 -29 -31 -32 -78 -29 -50 3 -51 4 -57 38 -10 62 -25 80 -68 80 -21 0 -44
-6 -50 -14z"/>
<path d="M5673 1113 c-21 -8 -15 -38 12 -63 14 -13 25 -30 25 -37 0 -18 -46
-35 -83 -31 -26 3 -32 9 -42 46 -18 59 -31 72 -74 72 -86 0 -105 -30 -51 -80
57 -54 40 -69 -90 -79 -83 -6 -85 -6 -82 -31 2 -14 6 -52 9 -85 2 -33 8 -64
13 -68 14 -16 50 13 66 53 21 51 47 67 160 95 119 31 310 41 459 26 124 -13
146 -24 127 -66 -17 -38 -15 -63 8 -75 17 -9 25 -3 65 52 51 70 50 68 32 92
-9 13 -42 23 -115 34 -60 10 -102 22 -102 28 0 7 11 19 25 28 31 21 33 61 4
77 -13 6 -39 8 -66 4 -42 -6 -44 -8 -38 -32 10 -43 -27 -73 -92 -73 -50 0 -53
2 -53 24 0 31 -18 78 -33 88 -13 8 -65 9 -84 1z"/>
<path d="M4641 1078 c-5 -13 -12 -37 -15 -55 -10 -43 -21 -50 -96 -62 -111
-18 -127 -16 -134 21 -3 17 -13 40 -22 49 -18 20 -44 15 -44 -10 0 -21 -46
-93 -94 -146 -36 -40 -54 -80 -42 -93 17 -16 87 -4 152 25 67 31 163 53 232
53 31 0 33 -2 30 -32 -4 -38 -13 -41 -160 -56 -122 -13 -152 -26 -156 -69 -3
-27 1 -35 23 -45 21 -10 44 -8 123 10 114 26 136 27 151 8 16 -18 4 -64 -19
-76 -10 -6 -52 -10 -92 -11 -40 0 -95 -4 -123 -9 -27 -6 -74 -13 -103 -16 -58
-8 -72 -24 -72 -84 0 -46 21 -50 150 -29 258 42 444 35 558 -22 113 -56 178
-31 226 86 10 25 16 48 14 51 -3 2 -26 -1 -50 -7 -37 -10 -65 -10 -154 4 -60
9 -131 19 -159 22 -27 3 -58 8 -67 11 -20 6 -24 44 -8 75 13 24 78 25 198 4
85 -15 104 -13 135 13 58 50 -25 90 -213 101 l-105 6 -3 32 c-4 43 12 47 171
33 150 -14 187 -7 187 34 0 45 -26 53 -230 71 -119 11 -130 14 -130 37 0 37
-23 98 -37 98 -7 0 -17 -10 -22 -22z"/>
<path d="M7645 1089 c-22 -4 -62 -8 -88 -8 -54 -1 -63 -12 -53 -65 5 -25 16
-41 41 -56 l35 -22 -1 -136 c-1 -75 -4 -147 -7 -159 -4 -12 -23 -32 -42 -45
-29 -20 -35 -30 -38 -66 -4 -59 13 -61 105 -17 85 41 148 65 169 65 10 0 14
-13 14 -39 0 -45 15 -91 29 -91 27 0 35 52 41 272 l6 227 32 40 c18 22 35 53
38 69 6 28 4 29 -41 36 -63 8 -190 6 -240 -5z m135 -119 c0 -20 -9 -24 -87
-34 -40 -6 -43 -5 -43 18 0 26 14 31 93 35 31 1 37 -2 37 -19z m8 -142 c-3
-19 -13 -24 -70 -33 -38 -6 -69 -7 -69 -3 -5 26 -1 32 31 44 19 7 52 13 73 13
34 1 38 -2 35 -21z m-10 -135 c-3 -16 -37 -30 -117 -48 -30 -6 -32 -5 -29 17
4 27 50 47 111 47 31 1 38 -2 35 -16z"/>
<path d="M8023 1093 c-41 -8 -45 -27 -13 -63 17 -19 30 -37 30 -41 0 -14 -40
-31 -89 -38 -40 -5 -46 -9 -49 -32 -2 -15 4 -34 14 -44 18 -18 23 -18 157 2
23 3 43 1 50 -6 21 -21 -16 -41 -111 -58 -91 -17 -92 -18 -98 -50 -3 -18 -3
-40 0 -49 7 -17 14 -17 118 7 32 7 60 10 64 7 3 -4 -3 -27 -15 -52 -28 -65
-99 -110 -160 -102 -42 6 -43 5 -37 -19 13 -51 26 -75 51 -91 22 -14 32 -15
64 -6 20 7 47 22 58 34 30 32 80 131 98 193 18 61 28 65 151 65 61 0 78 4 94
20 25 25 26 45 3 55 -10 4 -63 11 -118 14 -93 6 -100 8 -103 28 -3 18 3 23 33
29 20 3 62 3 94 0 45 -5 67 -3 95 10 61 30 36 74 -42 74 -50 0 -58 14 -32 54
12 20 19 43 16 51 -12 33 -88 5 -91 -33 -3 -38 -38 -64 -94 -70 l-51 -5 0 40
c0 60 -31 87 -87 76z"/>
<path d="M2425 1079 c-115 -4 -241 -11 -278 -17 -44 -7 -78 -7 -94 -1 -13 5
-33 9 -43 9 -29 0 -36 -58 -15 -123 26 -78 29 -149 14 -298 -7 -74 -13 -156
-13 -182 1 -55 18 -81 37 -56 8 10 28 16 57 17 25 0 65 8 90 18 59 22 308 30
450 15 77 -8 114 -17 145 -35 23 -14 46 -21 53 -17 26 16 32 73 21 200 -14
156 -7 297 16 342 53 102 44 115 -92 124 -60 4 -115 8 -123 9 -8 1 -109 -1
-225 -5z m318 -90 c25 -6 48 -17 51 -25 3 -8 1 -37 -4 -65 -6 -29 -10 -119
-10 -202 l0 -150 -87 9 c-157 16 -356 9 -473 -16 -163 -35 -146 -57 -142 175
2 118 8 209 14 222 14 28 49 39 158 53 178 21 407 21 493 -1z"/>
<path d="M2335 961 c-38 -5 -88 -14 -110 -20 -22 -6 -52 -11 -67 -11 -47 0
-66 -62 -24 -81 17 -8 43 -7 101 5 102 21 127 21 123 -1 -2 -13 -21 -21 -68
-30 -36 -7 -83 -16 -105 -21 -54 -10 -76 -48 -43 -75 12 -10 31 -16 43 -14
177 42 204 42 176 -1 -10 -17 -143 -52 -198 -52 -42 0 -43 -1 -43 -33 0 -18 6
-41 13 -51 13 -17 17 -17 103 5 78 21 112 24 281 24 125 0 196 4 203 11 6 6
12 24 13 40 2 28 0 29 -58 38 -33 5 -63 14 -67 20 -16 24 -6 34 43 38 53 5 71
19 67 53 -4 26 -36 32 -165 34 -96 1 -103 2 -103 21 0 19 7 20 133 20 120 0
136 2 152 20 22 25 14 46 -22 54 -48 10 -305 15 -378 7z m190 -230 c0 -21 -52
-36 -70 -21 -30 25 -18 41 28 38 28 -2 42 -8 42 -17z"/>
<path d="M6793 1053 c-9 -16 -18 -30 -20 -32 -4 -6 -200 -24 -253 -24 -63 1
-81 -36 -39 -78 24 -24 62 -22 184 12 84 23 91 23 99 3 14 -36 -9 -49 -126
-68 -62 -11 -138 -22 -168 -25 -48 -5 -55 -9 -58 -30 -2 -12 -1 -34 3 -48 6
-25 8 -26 74 -20 37 3 98 16 137 30 90 32 168 44 162 25 -4 -14 -239 -138
-301 -159 -30 -10 -43 -10 -58 -1 -17 11 -21 9 -31 -13 -8 -17 -8 -37 -2 -63
9 -34 12 -37 45 -36 24 1 67 19 126 53 50 28 94 51 98 51 14 0 -3 -144 -23
-196 -30 -75 -22 -80 84 -54 75 19 107 22 218 18 93 -4 142 -10 169 -22 71
-31 72 -29 74 134 1 80 3 166 4 191 l2 47 44 5 c24 2 53 13 64 23 22 20 63 83
58 89 -2 2 -25 -1 -51 -7 -36 -9 -70 -7 -154 6 -59 9 -110 19 -113 22 -3 3 1
17 10 32 15 27 16 27 105 24 94 -4 133 9 121 40 -8 22 -43 28 -228 35 l-165 6
-17 28 c-21 37 -51 37 -74 2z m182 -112 c0 -19 -44 -50 -75 -53 -22 -3 -25 1
-23 26 1 16 8 33 15 38 21 13 83 5 83 -11z m135 -166 c81 -34 79 -50 -6 -40
-38 5 -108 8 -156 8 -49 0 -88 3 -88 8 0 8 45 42 70 52 26 11 123 -4 180 -28z
m-40 -103 c37 -6 46 -11 48 -29 2 -13 0 -23 -5 -23 -4 0 -86 -1 -180 -3 -142
-2 -174 1 -178 12 -9 24 9 32 96 40 107 11 163 11 219 3z m10 -131 c18 -5 26
-15 28 -34 3 -25 0 -27 -30 -26 -18 0 -69 4 -113 9 -52 5 -106 5 -152 -3 -40
-6 -76 -7 -80 -3 -15 14 15 41 58 53 48 12 248 15 289 4z"/>
<path d="M3440 885 c-47 -7 -104 -21 -128 -29 -23 -8 -48 -13 -56 -10 -18 7
-27 -19 -19 -56 4 -21 13 -32 29 -36 25 -7 32 -5 102 20 38 14 46 15 72 1 29
-15 46 -47 35 -65 -3 -5 -30 -10 -58 -10 -29 0 -101 -8 -162 -17 -60 -9 -128
-17 -150 -19 -22 -1 -43 -3 -47 -3 -17 -2 -7 -72 12 -91 25 -25 33 -25 104 0
87 30 303 64 332 53 18 -7 18 -43 -1 -90 -19 -48 -36 -59 -116 -74 -87 -16
-94 -18 -83 -28 15 -14 74 -29 141 -36 60 -7 62 -6 100 28 37 35 38 37 41 117
3 56 8 83 17 87 24 9 128 -18 206 -53 122 -54 148 -47 215 64 14 24 24 45 22
48 -2 2 -39 0 -82 -5 -57 -7 -95 -5 -144 5 -37 8 -97 14 -134 14 -61 0 -68 2
-68 20 0 21 40 45 135 81 51 19 56 23 53 47 -3 25 -8 28 -58 34 -120 16 -227
17 -310 3z m170 -74 c0 -18 -38 -51 -60 -51 -6 0 -16 12 -22 26 -14 31 0 44
50 44 25 0 32 -4 32 -19z"/>
<path d="M5665 885 c-44 -7 -98 -17 -120 -24 -22 -6 -51 -12 -65 -13 -20 -2
-26 -9 -28 -34 -6 -63 41 -79 122 -43 52 23 72 20 106 -16 35 -37 21 -55 -42
-55 -29 0 -100 -7 -158 -16 -58 -8 -129 -18 -157 -21 l-53 -5 0 -37 c0 -70 26
-79 139 -47 77 22 129 32 267 50 68 9 76 -15 37 -106 -17 -41 -41 -53 -131
-64 -29 -4 -55 -11 -58 -16 -9 -14 56 -35 132 -42 62 -6 73 -4 97 14 40 32 50
57 56 140 l6 75 49 -3 c28 -1 89 -19 147 -42 55 -22 110 -40 123 -40 34 0 77
39 110 100 l28 51 -54 -6 c-29 -3 -66 -8 -83 -10 -16 -3 -48 0 -70 6 -22 6
-85 14 -140 17 -72 5 -100 11 -100 20 0 14 50 43 148 86 43 19 57 30 57 45 0
12 -1 21 -2 21 -152 30 -245 34 -363 15z m162 -71 c8 -22 -24 -46 -57 -42 -28
3 -40 35 -18 49 23 15 68 10 75 -7z"/>
<path d="M10035 744 c-11 -2 -45 -9 -75 -16 -66 -14 -80 -23 -80 -53 0 -36 26
-49 91 -47 46 2 59 -1 59 -12 0 -22 -47 -73 -107 -117 -51 -38 -68 -71 -40
-81 6 -3 62 4 122 14 135 24 341 21 393 -6 17 -9 42 -16 56 -16 24 0 56 23 56
40 0 5 -32 46 -70 91 -39 45 -69 86 -67 93 2 6 21 10 44 8 60 -4 95 12 91 44
-5 45 -56 56 -268 60 -102 1 -194 1 -205 -2z m219 -90 c18 -7 60 -94 50 -103
-3 -3 -50 -8 -105 -9 -112 -4 -117 0 -76 63 31 48 83 68 131 49z"/>
<path d="M8980 725 c-36 -8 -87 -14 -114 -14 -46 -1 -48 -2 -41 -23 16 -44 8
-113 -20 -186 -36 -94 -30 -101 62 -77 101 26 291 32 382 11 40 -9 81 -14 92
-11 23 8 33 39 20 64 -20 37 -13 110 16 160 14 27 24 55 21 63 -11 28 -300 37
-418 13z m288 -123 c6 -56 -7 -62 -137 -63 -64 0 -141 -4 -171 -8 -30 -5 -56
-8 -57 -7 -6 5 19 76 30 83 29 18 130 32 227 30 l105 -2 3 -33z"/>
<path d="M8198 668 c-2 -40 2 -72 19 -123 33 -105 85 -121 187 -56 67 42 77
56 44 64 -13 4 -64 33 -113 65 -112 74 -134 82 -137 50z"/>
</g>
</svg>
