<?xml version="1.0" standalone="no"?>
<!DOCTYPE svg PUBLIC "-//W3C//DTD SVG 20010904//EN"
 "http://www.w3.org/TR/2001/REC-SVG-20010904/DTD/svg10.dtd">
<svg version="1.0" xmlns="http://www.w3.org/2000/svg"
 width="123.000000pt" height="80.000000pt" viewBox="0 0 123.000000 80.000000"
 preserveAspectRatio="xMidYMid meet">

<g transform="translate(0.000000,80.000000) scale(0.100000,-0.100000)"
fill="#000000" stroke="none">
<path d="M143 696 c-59 -19 -103 -53 -121 -95 -18 -43 -20 -175 -3 -239 l12
-42 129 0 130 0 0 65 0 65 -73 0 -73 0 -49 -50 c-48 -48 -50 -50 -57 -28 -3
13 -6 65 -7 116 -1 91 0 93 32 128 38 42 102 67 128 51 35 -22 59 -82 59 -146
0 -54 2 -61 20 -61 19 0 20 7 20 125 l0 125 -52 -1 c-29 0 -72 -6 -95 -13z"/>
<path d="M930 586 l0 -126 25 0 c24 0 25 2 25 65 0 71 16 114 51 138 18 13 26
13 65 0 54 -18 90 -59 99 -114 8 -46 -3 -189 -14 -189 -4 0 -27 20 -51 45
l-44 45 -78 0 -78 0 0 -65 0 -65 134 0 134 0 11 50 c14 65 14 180 0 217 -26
70 -101 114 -206 121 l-73 5 0 -127z"/>
<path d="M408 682 c-5 -17 -14 -22 -36 -22 -17 0 -32 6 -35 13 -3 6 -6 -31 -8
-85 -2 -53 -1 -94 4 -91 4 2 7 38 7 79 l0 74 34 0 c32 0 35 -2 41 -40 4 -22
11 -38 16 -34 5 3 9 0 9 -7 0 -7 3 -9 6 -6 4 4 1 13 -6 22 -7 8 -10 22 -6 30
3 9 2 13 -4 10 -6 -3 -10 0 -10 9 0 8 6 17 13 19 7 3 4 6 -7 6 -18 1 -18 2 1
19 10 9 14 13 7 9 -7 -5 -14 -3 -16 5 -3 7 -7 3 -10 -10z"/>
<path d="M651 688 c0 -9 7 -22 17 -27 14 -9 12 -10 -13 -11 -22 0 -26 -3 -16
-9 8 -5 20 -7 27 -4 7 3 14 -5 17 -19 l4 -23 2 24 c1 15 6 21 14 18 8 -3 20
-1 28 4 10 6 6 9 -15 9 -28 0 -28 1 -13 18 10 10 17 23 17 28 0 5 -5 1 -11 -8
-5 -10 -18 -18 -29 -18 -10 0 -21 8 -23 18 -4 15 -5 15 -6 0z"/>
<path d="M531 682 c0 -8 -11 -12 -26 -10 -13 2 -24 -1 -24 -7 0 -5 9 -10 21
-10 12 0 22 -6 24 -13 1 -7 0 -8 -3 -2 -8 17 -26 11 -19 -6 6 -15 4 -15 -10
-3 -15 12 -17 12 -12 -1 6 -20 47 -25 54 -7 3 9 4 28 1 44 -2 15 -5 22 -6 15z"/>
<path d="M558 678 c6 -6 18 -8 28 -6 14 3 12 5 -9 10 -19 3 -25 2 -19 -4z"/>
<path d="M803 683 c15 -2 37 -2 50 0 12 2 0 4 -28 4 -27 0 -38 -2 -22 -4z"/>
<path d="M794 636 c36 -33 35 -73 -1 -79 l-28 -4 27 -2 c24 -1 27 -5 31 -43
l4 -43 1 43 c2 40 4 42 33 42 17 0 28 4 24 10 -3 6 -18 10 -33 10 l-27 0 24
19 c15 11 21 25 18 37 -4 17 -5 17 -6 -2 -1 -23 -31 -43 -31 -21 1 16 22 42
40 50 8 3 -11 6 -43 6 l-58 1 25 -24z m46 5 c0 -18 -18 -21 -30 -6 -10 13 -9
15 9 15 11 0 21 -4 21 -9z"/>
<path d="M550 639 c0 -5 5 -7 10 -4 6 3 10 8 10 11 0 2 -4 4 -10 4 -5 0 -10
-5 -10 -11z"/>
<path d="M358 623 c9 -3 10 -9 2 -18 -6 -7 -8 -20 -4 -29 7 -18 24 -22 24 -6
0 6 -4 10 -10 10 -5 0 -10 5 -10 10 0 6 6 10 14 10 9 0 13 -10 12 -29 -1 -17
2 -28 6 -25 13 8 9 64 -4 64 -9 0 -8 4 2 10 11 7 8 10 -15 9 -16 0 -24 -3 -17
-6z"/>
<path d="M572 571 c3 -41 10 -67 22 -79 16 -16 16 -15 2 13 -18 35 -23 130 -5
105 9 -12 10 -12 7 -1 -3 8 -10 17 -17 19 -11 4 -13 -9 -9 -57z"/>
<path d="M632 553 c1 -63 2 -68 5 -25 3 34 9 55 18 59 11 4 12 10 4 24 -20 38
-29 18 -27 -58z"/>
<path d="M710 618 c-12 -8 -11 -9 5 -4 19 6 19 5 2 -8 -10 -8 -18 -17 -18 -20
3 -22 -2 -28 -9 -11 -8 18 -9 18 -9 2 -1 -10 -5 -15 -11 -12 -5 3 -10 1 -10
-4 0 -6 4 -11 9 -11 6 0 12 -19 14 -42 l4 -43 1 43 c1 23 7 42 12 42 6 0 10 7
10 15 0 9 7 18 15 21 16 7 20 30 7 38 -4 2 -14 0 -22 -6z"/>
<path d="M489 553 l6 -38 3 33 c2 24 7 32 18 28 8 -3 14 -1 14 4 0 6 -10 10
-23 10 -21 0 -22 -4 -18 -37z"/>
<path d="M733 530 c0 -30 2 -43 4 -27 2 15 2 39 0 55 -2 15 -4 2 -4 -28z"/>
<path d="M421 539 c-1 -15 7 -35 17 -46 9 -10 13 -13 8 -6 -5 7 -12 28 -16 46
-7 29 -8 30 -9 6z"/>
<path d="M352 520 c0 -19 2 -27 5 -17 2 9 2 25 0 35 -3 9 -5 1 -5 -18z"/>
<path d="M522 515 c0 -16 2 -22 5 -12 2 9 2 23 0 30 -3 6 -5 -1 -5 -18z"/>
<path d="M658 517 c-3 -19 -2 -25 4 -19 6 6 8 18 6 28 -3 14 -5 12 -10 -9z"/>
<path d="M380 508 c0 -9 5 -20 10 -23 13 -8 13 5 0 25 -8 13 -10 13 -10 -2z"/>
<path d="M541 504 c0 -11 3 -14 6 -6 3 7 2 16 -1 19 -3 4 -6 -2 -5 -13z"/>
<path d="M711 504 c0 -11 3 -14 6 -6 3 7 2 16 -1 19 -3 4 -6 -2 -5 -13z"/>
<path d="M370 433 c-33 -12 -50 -37 -50 -72 0 -42 7 -54 37 -70 27 -14 93 -15
93 -1 0 6 -15 10 -34 10 -42 0 -66 22 -66 59 0 36 28 61 68 61 18 0 32 5 32
10 0 10 -54 12 -80 3z"/>
<path d="M496 427 c-27 -20 -16 -50 27 -70 53 -26 52 -57 -3 -57 -22 0 -40 -4
-40 -10 0 -13 66 -13 91 0 11 6 19 21 19 36 0 21 -8 29 -40 41 -50 20 -51 46
-2 51 17 2 32 7 32 13 0 14 -64 11 -84 -4z"/>
<path d="M632 424 c-32 -22 -24 -44 23 -68 54 -28 53 -50 -2 -54 -57 -4 -55
-22 1 -22 35 0 48 5 60 22 19 27 9 46 -35 67 -46 22 -44 45 4 49 20 2 35 7 32
13 -10 14 -58 11 -83 -7z"/>
<path d="M793 423 c-3 -10 -17 -44 -29 -75 -28 -67 -28 -68 -11 -68 8 0 19 12
25 26 15 32 62 31 77 -3 5 -13 17 -23 27 -23 15 0 13 10 -15 77 -33 79 -60
103 -74 66z m38 -40 c11 -30 -1 -49 -25 -40 -12 5 -13 12 -5 37 13 37 17 37
30 3z"/>
<path d="M10 295 c0 -8 5 -15 10 -15 6 0 10 -48 10 -125 l0 -125 25 0 c26 0
33 18 14 37 -6 6 -9 28 -7 49 2 31 9 41 31 51 15 7 39 19 55 26 28 13 36 37
14 45 -7 2 -11 -2 -10 -9 4 -19 -24 -22 -47 -5 -16 12 -17 16 -6 30 11 12 33
16 102 16 82 0 89 2 89 20 0 19 -7 20 -140 20 -118 0 -140 -2 -140 -15z"/>
<path d="M930 290 c0 -18 7 -20 88 -20 98 0 123 -9 106 -37 -15 -24 -54 -30
-54 -9 0 9 -4 16 -10 16 -12 0 -13 -20 -2 -37 4 -6 21 -15 37 -18 54 -13 75
-32 75 -70 0 -20 -5 -44 -12 -55 -14 -22 -11 -27 17 -32 19 -3 20 3 23 122 2
76 7 127 14 131 6 4 7 12 4 18 -5 7 -55 11 -147 11 -132 0 -139 -1 -139 -20z"/>
<path d="M213 195 c2 -31 6 -41 21 -44 23 -4 46 24 46 56 0 35 -18 27 -22 -9
-4 -45 -31 -44 -40 2 l-6 35 1 -40z"/>
<path d="M291 223 c0 -4 6 -24 14 -43 l13 -35 14 34 15 33 13 -33 12 -34 14
30 c7 17 13 37 13 45 0 8 -6 3 -13 -13 -13 -29 -26 -26 -26 6 0 25 -24 16 -28
-11 -4 -27 -22 -29 -22 -3 0 11 -4 23 -10 26 -5 3 -10 3 -9 -2z"/>
<path d="M461 188 l2 -43 6 35 6 35 13 -35 13 -35 19 35 18 35 5 -35 c4 -34 4
-33 5 8 2 48 -11 54 -32 15 l-14 -28 -11 28 c-16 41 -31 33 -30 -15z"/>
<path d="M582 197 c-15 -42 -15 -58 1 -32 6 11 12 23 13 28 1 4 2 10 3 15 1 4
9 -9 18 -28 8 -19 17 -30 20 -23 5 13 -24 73 -35 73 -5 0 -13 -15 -20 -33z"/>
<path d="M660 191 c0 -33 4 -41 18 -41 30 0 54 24 50 51 -2 19 -10 25 -35 27
-32 3 -33 2 -33 -37z m56 14 c7 -18 -12 -45 -32 -45 -9 0 -14 11 -14 30 0 23
4 30 20 30 11 0 23 -7 26 -15z"/>
<path d="M753 190 c0 -25 2 -35 4 -22 2 12 2 32 0 45 -2 12 -4 2 -4 -23z"/>
<path d="M780 216 c0 -7 10 -20 23 -29 l22 -15 -25 -11 -25 -11 25 3 c31 3 39
33 11 42 -28 8 -27 23 2 28 19 4 18 4 -5 6 -18 0 -28 -4 -28 -13z"/>
<path d="M850 215 c-25 -30 14 -74 53 -59 41 15 26 74 -18 74 -12 0 -28 -7
-35 -15z m55 -25 c0 -38 -39 -35 -43 3 -3 25 0 28 20 25 17 -2 23 -9 23 -28z"/>
<path d="M941 188 c2 -30 3 -35 6 -15 2 15 7 27 11 27 3 0 16 -12 29 -27 l22
-28 -1 45 c0 38 -1 40 -7 15 l-6 -29 -18 27 c-25 39 -37 33 -36 -15z"/>
<path d="M418 183 c7 -3 16 -2 19 1 4 3 -2 6 -13 5 -11 0 -14 -3 -6 -6z"/>
<path d="M123 113 c-16 -3 -23 -11 -22 -26 1 -17 2 -18 6 -4 2 9 13 17 24 17
10 0 19 5 19 10 0 6 -1 9 -2 9 -2 -1 -13 -4 -25 -6z"/>
<path d="M258 113 c6 -2 18 -2 25 0 6 3 1 5 -13 5 -14 0 -19 -2 -12 -5z"/>
<path d="M345 110 c3 -5 0 -10 -7 -11 -7 0 -3 -5 10 -12 16 -7 22 -17 19 -29
-7 -27 6 -22 20 7 10 23 9 25 -13 25 -17 0 -22 4 -18 15 4 8 1 15 -6 15 -6 0
-8 -4 -5 -10z"/>
<path d="M370 108 c0 -4 9 -8 20 -8 11 0 20 4 20 8 0 4 -9 8 -20 8 -11 0 -20
-4 -20 -8z"/>
<path d="M572 104 c-7 -8 -3 -15 15 -23 17 -8 23 -17 19 -29 -5 -14 -3 -13 9
2 21 28 19 34 -12 39 -26 4 -26 4 5 6 17 0 32 4 32 9 0 11 -56 8 -68 -4z"/>
<path d="M809 118 c0 -2 -2 -16 -3 -33 -3 -27 0 -30 25 -31 l29 -1 -22 18 -21
19 21 0 c12 0 22 -4 22 -10 0 -5 7 -7 15 -4 8 3 13 11 12 17 -3 17 -31 26 -39
13 -6 -8 -8 -7 -8 2 0 10 -28 19 -31 10z"/>
<path d="M970 110 c13 -9 13 -10 0 -11 -8 -1 -20 -1 -27 0 -6 1 -14 -3 -18 -9
-3 -5 0 -7 8 -4 8 3 18 0 22 -5 3 -6 10 -9 15 -6 5 3 12 0 16 -6 5 -8 -1 -10
-20 -7 -14 3 -26 1 -26 -3 0 -5 14 -9 31 -9 26 0 30 3 26 19 -3 15 -1 18 12
14 9 -3 5 4 -9 16 -14 11 -29 21 -35 21 -5 0 -3 -5 5 -10z"/>
<path d="M1063 101 c-19 -16 -20 -20 -7 -25 8 -3 12 -10 9 -16 -4 -6 5 -10 21
-10 22 0 25 4 21 20 -4 18 -2 20 16 14 19 -6 19 -4 -5 15 -31 25 -28 25 -55 2z
m37 5 c0 -3 -4 -8 -10 -11 -5 -3 -10 -1 -10 4 0 6 5 11 10 11 6 0 10 -2 10 -4z"/>
<path d="M175 100 c3 -6 -5 -10 -18 -10 -21 0 -24 -4 -19 -22 5 -17 7 -19 10
-7 2 10 12 19 23 22 20 5 27 27 8 27 -5 0 -7 -4 -4 -10z"/>
<path d="M210 94 c0 -13 3 -15 8 -7 5 8 13 9 22 3 13 -9 13 -10 0 -10 -13 0
-13 -1 0 -11 12 -9 11 -10 -7 -6 -13 3 -23 1 -23 -4 0 -5 21 -9 48 -9 31 0 42
3 33 9 -8 5 -11 16 -8 25 5 12 0 16 -17 16 -14 0 -31 3 -40 6 -11 4 -16 0 -16
-12z"/>
<path d="M454 98 c-8 -12 5 -28 24 -29 10 -1 7 -4 -8 -8 -21 -7 -17 -8 23 -12
26 -2 47 -1 47 3 0 5 -10 8 -22 9 -22 0 -22 1 -3 9 l20 9 -20 1 c-17 2 -16 3
5 10 21 7 22 8 5 10 -11 1 -30 3 -43 4 -13 2 -25 -1 -28 -6z m33 -14 c-3 -3
-12 -4 -19 -1 -8 3 -5 6 6 6 11 1 17 -2 13 -5z"/>
<path d="M705 100 l20 -9 -20 -1 c-11 -1 -14 -4 -7 -7 6 -2 12 -13 12 -24 0
-14 7 -19 29 -19 23 0 30 5 33 25 4 18 1 25 -11 25 -14 0 -14 2 -1 10 11 7 3
10 -30 9 -34 0 -40 -2 -25 -9z m52 -26 c-3 -3 -12 -4 -19 -1 -8 3 -5 6 6 6 11
1 17 -2 13 -5z m-4 -21 c-7 -2 -19 -2 -25 0 -7 3 -2 5 12 5 14 0 19 -2 13 -5z"/>
<path d="M408 63 c7 -3 16 -2 19 1 4 3 -2 6 -13 5 -11 0 -14 -3 -6 -6z"/>
<path d="M880 60 c0 -5 5 -10 11 -10 5 0 7 5 4 10 -3 6 -8 10 -11 10 -2 0 -4
-4 -4 -10z"/>
</g>
</svg>
